<svg xmlns="http://www.w3.org/2000/svg" width="1024" height="1024" viewBox="0 0 1024 1024" fill="none">
  <defs>
    <linearGradient id="bg" x1="512" y1="72" x2="512" y2="952" gradientUnits="userSpaceOnUse">
      <stop stop-color="#F7ECDA"/>
      <stop offset="1" stop-color="#E5C794"/>
    </linearGradient>
    <filter id="glow" x="0" y="0" width="1024" height="1024" filterUnits="userSpaceOnUse">
      <feGaussianBlur stdDeviation="30"/>
    </filter>
    <filter id="shade" x="0" y="0" width="1024" height="1024" filterUnits="userSpaceOnUse">
      <feGaussianBlur stdDeviation="18"/>
    </filter>
  </defs>

  <rect x="72" y="72" width="880" height="880" rx="224" fill="url(#bg)"/>
  <rect x="72" y="72" width="880" height="880" rx="224" stroke="#D2AC74" stroke-width="18"/>
  <rect x="108" y="108" width="808" height="808" rx="190" stroke="#FFFFFF" stroke-opacity="0.23" stroke-width="8"/>

  <g filter="url(#glow)" opacity="0.9">
    <ellipse cx="370" cy="250" rx="220" ry="140" fill="#FFFFFF" fill-opacity="0.34"/>
    <ellipse cx="610" cy="770" rx="310" ry="150" fill="#C48939" fill-opacity="0.18"/>
  </g>

  <g>
    <path d="M292 278C337 245 405 220 492 214C614 230 716 300 744 448C742 585 697 690 612 758C561 797 496 815 424 800C329 765 275 702 256 468L292 278Z" fill="#2F3232"/>
    <g filter="url(#shade)">
      <ellipse cx="524" cy="558" rx="202" ry="246" fill="#1C1F1F"/>
      <path d="M618 254L760 360L746 648L586 790L618 254Z" fill="#1C1F1F"/>
    </g>
    <ellipse cx="517" cy="748" rx="239" ry="54" fill="#10725F"/>
    <circle cx="421" cy="446" r="135" fill="white"/>
    <circle cx="603" cy="429" r="135" fill="white"/>
    <circle cx="425" cy="433" r="43" fill="#3D3F3F"/>
    <circle cx="587" cy="411" r="43" fill="#3D3F3F"/>
    <circle cx="421" cy="419" r="11" fill="white"/>
    <circle cx="581" cy="397" r="11" fill="white"/>
    <path d="M488 522L542 552L520 620L462 568L488 522Z" fill="#AD6420"/>
    <path d="M498 540L566 512L622 570L542 574L498 540Z" fill="#2F3232"/>
  </g>
</svg>
